<mxfile host="65bd71144e" pages="2">
    <diagram name="PÃ¡gina-1" id="HXirho9W4ZT-5EolwWq1">
        <mxGraphModel dx="1097" dy="862" grid="1" gridSize="10" guides="1" tooltips="1" connect="1" arrows="1" fold="1" page="1" pageScale="1" pageWidth="827" pageHeight="1169" math="0" shadow="0">
            <root>
                <mxCell id="0"/>
                <mxCell id="1" parent="0"/>
                <mxCell id="vGpi9q6UH_f0I2v3fOz4-5" style="edgeStyle=orthogonalEdgeStyle;rounded=0;orthogonalLoop=1;jettySize=auto;html=1;exitX=0.5;exitY=1;exitDx=0;exitDy=0;entryX=0.5;entryY=0;entryDx=0;entryDy=0;" parent="1" source="vGpi9q6UH_f0I2v3fOz4-1" target="vGpi9q6UH_f0I2v3fOz4-4" edge="1">
                    <mxGeometry relative="1" as="geometry"/>
                </mxCell>
                <mxCell id="vGpi9q6UH_f0I2v3fOz4-11" style="edgeStyle=orthogonalEdgeStyle;rounded=0;orthogonalLoop=1;jettySize=auto;html=1;exitX=0;exitY=0.5;exitDx=0;exitDy=0;" parent="1" source="vGpi9q6UH_f0I2v3fOz4-1" edge="1">
                    <mxGeometry relative="1" as="geometry">
                        <mxPoint x="210" y="210" as="targetPoint"/>
                    </mxGeometry>
                </mxCell>
                <mxCell id="vGpi9q6UH_f0I2v3fOz4-1" value="TIPO DE SACO&amp;nbsp;&lt;br&gt;(UND)" style="rounded=0;whiteSpace=wrap;html=1;" parent="1" vertex="1">
                    <mxGeometry x="260" y="180" width="120" height="60" as="geometry"/>
                </mxCell>
                <mxCell id="vGpi9q6UH_f0I2v3fOz4-6" style="edgeStyle=orthogonalEdgeStyle;rounded=0;orthogonalLoop=1;jettySize=auto;html=1;exitX=0.5;exitY=1;exitDx=0;exitDy=0;" parent="1" source="vGpi9q6UH_f0I2v3fOz4-2" edge="1">
                    <mxGeometry relative="1" as="geometry">
                        <mxPoint x="390" y="310" as="targetPoint"/>
                    </mxGeometry>
                </mxCell>
                <mxCell id="vGpi9q6UH_f0I2v3fOz4-16" style="edgeStyle=orthogonalEdgeStyle;rounded=0;orthogonalLoop=1;jettySize=auto;html=1;exitX=1;exitY=0.5;exitDx=0;exitDy=0;" parent="1" source="vGpi9q6UH_f0I2v3fOz4-2" edge="1">
                    <mxGeometry relative="1" as="geometry">
                        <mxPoint x="550" y="210" as="targetPoint"/>
                    </mxGeometry>
                </mxCell>
                <mxCell id="vGpi9q6UH_f0I2v3fOz4-2" value="CEMENTO&lt;br&gt;(Kg)" style="rounded=0;whiteSpace=wrap;html=1;" parent="1" vertex="1">
                    <mxGeometry x="400" y="180" width="120" height="60" as="geometry"/>
                </mxCell>
                <mxCell id="vGpi9q6UH_f0I2v3fOz4-21" style="edgeStyle=orthogonalEdgeStyle;rounded=0;orthogonalLoop=1;jettySize=auto;html=1;exitX=1;exitY=0.5;exitDx=0;exitDy=0;" parent="1" source="vGpi9q6UH_f0I2v3fOz4-4" edge="1">
                    <mxGeometry relative="1" as="geometry">
                        <mxPoint x="500" y="340" as="targetPoint"/>
                    </mxGeometry>
                </mxCell>
                <mxCell id="vGpi9q6UH_f0I2v3fOz4-28" style="edgeStyle=orthogonalEdgeStyle;rounded=0;orthogonalLoop=1;jettySize=auto;html=1;exitX=0;exitY=0.5;exitDx=0;exitDy=0;" parent="1" source="vGpi9q6UH_f0I2v3fOz4-4" edge="1">
                    <mxGeometry relative="1" as="geometry">
                        <mxPoint x="300" y="340" as="targetPoint"/>
                    </mxGeometry>
                </mxCell>
                <mxCell id="vGpi9q6UH_f0I2v3fOz4-4" value="PRODUCTO&lt;br&gt;(UND)" style="rounded=0;whiteSpace=wrap;html=1;" parent="1" vertex="1">
                    <mxGeometry x="330" y="310" width="120" height="60" as="geometry"/>
                </mxCell>
                <mxCell id="vGpi9q6UH_f0I2v3fOz4-7" value="TIPO DE SACO" style="swimlane;fontStyle=0;childLayout=stackLayout;horizontal=1;startSize=30;horizontalStack=0;resizeParent=1;resizeParentMax=0;resizeLast=0;collapsible=1;marginBottom=0;whiteSpace=wrap;html=1;" parent="1" vertex="1">
                    <mxGeometry x="60" y="140" width="140" height="120" as="geometry"/>
                </mxCell>
                <mxCell id="vGpi9q6UH_f0I2v3fOz4-8" value="MONDI" style="text;strokeColor=none;fillColor=none;align=left;verticalAlign=middle;spacingLeft=4;spacingRight=4;overflow=hidden;points=[[0,0.5],[1,0.5]];portConstraint=eastwest;rotatable=0;whiteSpace=wrap;html=1;" parent="vGpi9q6UH_f0I2v3fOz4-7" vertex="1">
                    <mxGeometry y="30" width="140" height="30" as="geometry"/>
                </mxCell>
                <mxCell id="vGpi9q6UH_f0I2v3fOz4-9" value="CARTON COLOMBIA" style="text;strokeColor=none;fillColor=none;align=left;verticalAlign=middle;spacingLeft=4;spacingRight=4;overflow=hidden;points=[[0,0.5],[1,0.5]];portConstraint=eastwest;rotatable=0;whiteSpace=wrap;html=1;" parent="vGpi9q6UH_f0I2v3fOz4-7" vertex="1">
                    <mxGeometry y="60" width="140" height="30" as="geometry"/>
                </mxCell>
                <mxCell id="vGpi9q6UH_f0I2v3fOz4-10" value="POLIETILENO" style="text;strokeColor=none;fillColor=none;align=left;verticalAlign=middle;spacingLeft=4;spacingRight=4;overflow=hidden;points=[[0,0.5],[1,0.5]];portConstraint=eastwest;rotatable=0;whiteSpace=wrap;html=1;" parent="vGpi9q6UH_f0I2v3fOz4-7" vertex="1">
                    <mxGeometry y="90" width="140" height="30" as="geometry"/>
                </mxCell>
                <mxCell id="vGpi9q6UH_f0I2v3fOz4-12" value="TIPO DE CEMENTO" style="swimlane;fontStyle=0;childLayout=stackLayout;horizontal=1;startSize=30;horizontalStack=0;resizeParent=1;resizeParentMax=0;resizeLast=0;collapsible=1;marginBottom=0;whiteSpace=wrap;html=1;" parent="1" vertex="1">
                    <mxGeometry x="560" y="140" width="140" height="120" as="geometry"/>
                </mxCell>
                <mxCell id="vGpi9q6UH_f0I2v3fOz4-13" value="ART" style="text;strokeColor=none;fillColor=none;align=left;verticalAlign=middle;spacingLeft=4;spacingRight=4;overflow=hidden;points=[[0,0.5],[1,0.5]];portConstraint=eastwest;rotatable=0;whiteSpace=wrap;html=1;" parent="vGpi9q6UH_f0I2v3fOz4-12" vertex="1">
                    <mxGeometry y="30" width="140" height="30" as="geometry"/>
                </mxCell>
                <mxCell id="vGpi9q6UH_f0I2v3fOz4-14" value="UG" style="text;strokeColor=none;fillColor=none;align=left;verticalAlign=middle;spacingLeft=4;spacingRight=4;overflow=hidden;points=[[0,0.5],[1,0.5]];portConstraint=eastwest;rotatable=0;whiteSpace=wrap;html=1;" parent="vGpi9q6UH_f0I2v3fOz4-12" vertex="1">
                    <mxGeometry y="60" width="140" height="30" as="geometry"/>
                </mxCell>
                <mxCell id="vGpi9q6UH_f0I2v3fOz4-15" value="ECOCEM" style="text;strokeColor=none;fillColor=none;align=left;verticalAlign=middle;spacingLeft=4;spacingRight=4;overflow=hidden;points=[[0,0.5],[1,0.5]];portConstraint=eastwest;rotatable=0;whiteSpace=wrap;html=1;" parent="vGpi9q6UH_f0I2v3fOz4-12" vertex="1">
                    <mxGeometry y="90" width="140" height="30" as="geometry"/>
                </mxCell>
                <mxCell id="vGpi9q6UH_f0I2v3fOz4-17" value="TIPO DE CEMENTO" style="swimlane;fontStyle=0;childLayout=stackLayout;horizontal=1;startSize=30;horizontalStack=0;resizeParent=1;resizeParentMax=0;resizeLast=0;collapsible=1;marginBottom=0;whiteSpace=wrap;html=1;" parent="1" vertex="1">
                    <mxGeometry x="510" y="280" width="140" height="120" as="geometry"/>
                </mxCell>
                <mxCell id="vGpi9q6UH_f0I2v3fOz4-18" value="ART 45 Kg" style="text;strokeColor=none;fillColor=none;align=left;verticalAlign=middle;spacingLeft=4;spacingRight=4;overflow=hidden;points=[[0,0.5],[1,0.5]];portConstraint=eastwest;rotatable=0;whiteSpace=wrap;html=1;" parent="vGpi9q6UH_f0I2v3fOz4-17" vertex="1">
                    <mxGeometry y="30" width="140" height="30" as="geometry"/>
                </mxCell>
                <mxCell id="vGpi9q6UH_f0I2v3fOz4-19" value="UG 50 Kg" style="text;strokeColor=none;fillColor=none;align=left;verticalAlign=middle;spacingLeft=4;spacingRight=4;overflow=hidden;points=[[0,0.5],[1,0.5]];portConstraint=eastwest;rotatable=0;whiteSpace=wrap;html=1;" parent="vGpi9q6UH_f0I2v3fOz4-17" vertex="1">
                    <mxGeometry y="60" width="140" height="30" as="geometry"/>
                </mxCell>
                <mxCell id="vGpi9q6UH_f0I2v3fOz4-20" value="ECOCEM 50 Kg" style="text;strokeColor=none;fillColor=none;align=left;verticalAlign=middle;spacingLeft=4;spacingRight=4;overflow=hidden;points=[[0,0.5],[1,0.5]];portConstraint=eastwest;rotatable=0;whiteSpace=wrap;html=1;" parent="vGpi9q6UH_f0I2v3fOz4-17" vertex="1">
                    <mxGeometry y="90" width="140" height="30" as="geometry"/>
                </mxCell>
                <mxCell id="vGpi9q6UH_f0I2v3fOz4-24" value="PUNTO DE CARGUE" style="swimlane;fontStyle=0;childLayout=stackLayout;horizontal=1;startSize=30;horizontalStack=0;resizeParent=1;resizeParentMax=0;resizeLast=0;collapsible=1;marginBottom=0;whiteSpace=wrap;html=1;" parent="1" vertex="1">
                    <mxGeometry x="150" y="280" width="140" height="120" as="geometry"/>
                </mxCell>
                <mxCell id="vGpi9q6UH_f0I2v3fOz4-25" value="AUTOPAK" style="text;strokeColor=none;fillColor=none;align=left;verticalAlign=middle;spacingLeft=4;spacingRight=4;overflow=hidden;points=[[0,0.5],[1,0.5]];portConstraint=eastwest;rotatable=0;whiteSpace=wrap;html=1;" parent="vGpi9q6UH_f0I2v3fOz4-24" vertex="1">
                    <mxGeometry y="30" width="140" height="30" as="geometry"/>
                </mxCell>
                <mxCell id="vGpi9q6UH_f0I2v3fOz4-26" value="PALETIZADORA" style="text;strokeColor=none;fillColor=none;align=left;verticalAlign=middle;spacingLeft=4;spacingRight=4;overflow=hidden;points=[[0,0.5],[1,0.5]];portConstraint=eastwest;rotatable=0;whiteSpace=wrap;html=1;" parent="vGpi9q6UH_f0I2v3fOz4-24" vertex="1">
                    <mxGeometry y="60" width="140" height="30" as="geometry"/>
                </mxCell>
                <mxCell id="vGpi9q6UH_f0I2v3fOz4-27" value="CARGADOR MANUAL" style="text;strokeColor=none;fillColor=none;align=left;verticalAlign=middle;spacingLeft=4;spacingRight=4;overflow=hidden;points=[[0,0.5],[1,0.5]];portConstraint=eastwest;rotatable=0;whiteSpace=wrap;html=1;" parent="vGpi9q6UH_f0I2v3fOz4-24" vertex="1">
                    <mxGeometry y="90" width="140" height="30" as="geometry"/>
                </mxCell>
            </root>
        </mxGraphModel>
    </diagram>
    <diagram id="Qi0VRRA0g66cA9YXpqHt" name="PÃ¡gina-2">
        <mxGraphModel dx="1097" dy="2031" grid="1" gridSize="10" guides="1" tooltips="1" connect="1" arrows="1" fold="1" page="1" pageScale="1" pageWidth="827" pageHeight="1169" math="0" shadow="0">
            <root>
                <mxCell id="0"/>
                <mxCell id="1" parent="0"/>
                <mxCell id="uvzCt-EJVez2UryyWQmT-1" value="" style="rounded=0;whiteSpace=wrap;html=1;" parent="1" vertex="1">
                    <mxGeometry x="10" y="-850" width="810" height="620" as="geometry"/>
                </mxCell>
                <mxCell id="uvzCt-EJVez2UryyWQmT-24" value="" style="rounded=1;whiteSpace=wrap;html=1;" parent="1" vertex="1">
                    <mxGeometry x="24" y="-830" width="456" height="500" as="geometry"/>
                </mxCell>
                <mxCell id="uvzCt-EJVez2UryyWQmT-19" value="" style="rounded=1;whiteSpace=wrap;html=1;" parent="1" vertex="1">
                    <mxGeometry x="520" y="-830" width="290" height="380" as="geometry"/>
                </mxCell>
                <mxCell id="uvzCt-EJVez2UryyWQmT-2" value="MOLINO 1 PRODUCIENDO" style="rounded=0;whiteSpace=wrap;html=1;" parent="1" vertex="1">
                    <mxGeometry x="190" y="-780" width="120" height="60" as="geometry"/>
                </mxCell>
                <mxCell id="uvzCt-EJVez2UryyWQmT-3" value="MOLINO 2 PRODUCIENDO" style="rounded=0;whiteSpace=wrap;html=1;" parent="1" vertex="1">
                    <mxGeometry x="320" y="-780" width="120" height="60" as="geometry"/>
                </mxCell>
                <mxCell id="uvzCt-EJVez2UryyWQmT-4" value="INDICADOR Kw/Ton" style="ellipse;whiteSpace=wrap;html=1;aspect=fixed;" parent="1" vertex="1">
                    <mxGeometry x="210" y="-700" width="80" height="80" as="geometry"/>
                </mxCell>
                <mxCell id="uvzCt-EJVez2UryyWQmT-5" value="INDICADOR Kw/Ton" style="ellipse;whiteSpace=wrap;html=1;aspect=fixed;" parent="1" vertex="1">
                    <mxGeometry x="340" y="-700" width="80" height="80" as="geometry"/>
                </mxCell>
                <mxCell id="uvzCt-EJVez2UryyWQmT-6" value="GRAFICO BARRA O LINEA ULTIAMAS 24 HORAS" style="rounded=0;whiteSpace=wrap;html=1;" parent="1" vertex="1">
                    <mxGeometry x="190" y="-530" width="120" height="60" as="geometry"/>
                </mxCell>
                <mxCell id="uvzCt-EJVez2UryyWQmT-7" value="GRAFICO DE BARRA&amp;nbsp; O LINEA ULTIAMAS 24 HORAS" style="rounded=0;whiteSpace=wrap;html=1;" parent="1" vertex="1">
                    <mxGeometry x="320" y="-530" width="120" height="60" as="geometry"/>
                </mxCell>
                <mxCell id="uvzCt-EJVez2UryyWQmT-9" value="SELECTOR TIPO DATO A MOSTRAR" style="swimlane;fontStyle=0;childLayout=stackLayout;horizontal=1;startSize=30;horizontalStack=0;resizeParent=1;resizeParentMax=0;resizeLast=0;collapsible=1;marginBottom=0;whiteSpace=wrap;html=1;" parent="1" vertex="1">
                    <mxGeometry x="30" y="-530" width="140" height="120" as="geometry"/>
                </mxCell>
                <mxCell id="uvzCt-EJVez2UryyWQmT-10" value="PRODUCCION (TON)" style="text;strokeColor=none;fillColor=none;align=left;verticalAlign=middle;spacingLeft=4;spacingRight=4;overflow=hidden;points=[[0,0.5],[1,0.5]];portConstraint=eastwest;rotatable=0;whiteSpace=wrap;html=1;" parent="uvzCt-EJVez2UryyWQmT-9" vertex="1">
                    <mxGeometry y="30" width="140" height="30" as="geometry"/>
                </mxCell>
                <mxCell id="uvzCt-EJVez2UryyWQmT-11" value="INDICADOR Kw/Ton" style="text;strokeColor=none;fillColor=none;align=left;verticalAlign=middle;spacingLeft=4;spacingRight=4;overflow=hidden;points=[[0,0.5],[1,0.5]];portConstraint=eastwest;rotatable=0;whiteSpace=wrap;html=1;" parent="uvzCt-EJVez2UryyWQmT-9" vertex="1">
                    <mxGeometry y="60" width="140" height="30" as="geometry"/>
                </mxCell>
                <mxCell id="uvzCt-EJVez2UryyWQmT-12" value="ALGUN OTRO" style="text;strokeColor=none;fillColor=none;align=left;verticalAlign=middle;spacingLeft=4;spacingRight=4;overflow=hidden;points=[[0,0.5],[1,0.5]];portConstraint=eastwest;rotatable=0;whiteSpace=wrap;html=1;" parent="uvzCt-EJVez2UryyWQmT-9" vertex="1">
                    <mxGeometry y="90" width="140" height="30" as="geometry"/>
                </mxCell>
                <mxCell id="uvzCt-EJVez2UryyWQmT-14" value="EMPACADORA VENTOMATIC PRODUCIENDO" style="rounded=0;whiteSpace=wrap;html=1;" parent="1" vertex="1">
                    <mxGeometry x="540" y="-780" width="120" height="60" as="geometry"/>
                </mxCell>
                <mxCell id="uvzCt-EJVez2UryyWQmT-15" value="EMPACADORA HAVER PRODUCIENDO" style="rounded=0;whiteSpace=wrap;html=1;" parent="1" vertex="1">
                    <mxGeometry x="670" y="-780" width="120" height="60" as="geometry"/>
                </mxCell>
                <mxCell id="uvzCt-EJVez2UryyWQmT-17" value="CANTIDAD EN UND" style="ellipse;whiteSpace=wrap;html=1;aspect=fixed;" parent="1" vertex="1">
                    <mxGeometry x="560" y="-700" width="80" height="80" as="geometry"/>
                </mxCell>
                <mxCell id="uvzCt-EJVez2UryyWQmT-18" value="CANTIDAD EN UND" style="ellipse;whiteSpace=wrap;html=1;aspect=fixed;" parent="1" vertex="1">
                    <mxGeometry x="680" y="-700" width="80" height="80" as="geometry"/>
                </mxCell>
                <mxCell id="uvzCt-EJVez2UryyWQmT-20" value="PRIDUCCION ULTOMAS 24 H" style="rounded=0;whiteSpace=wrap;html=1;" parent="1" vertex="1">
                    <mxGeometry x="540" y="-570" width="120" height="60" as="geometry"/>
                </mxCell>
                <mxCell id="uvzCt-EJVez2UryyWQmT-21" value="PRIDUCCION ULTOMAS 24 H" style="rounded=0;whiteSpace=wrap;html=1;" parent="1" vertex="1">
                    <mxGeometry x="670" y="-570" width="120" height="60" as="geometry"/>
                </mxCell>
                <mxCell id="uvzCt-EJVez2UryyWQmT-22" value="GRAFICO BARRA O LINEA ULTIAMAS 24 HORAS" style="rounded=0;whiteSpace=wrap;html=1;" parent="1" vertex="1">
                    <mxGeometry x="540" y="-430" width="120" height="60" as="geometry"/>
                </mxCell>
                <mxCell id="uvzCt-EJVez2UryyWQmT-23" value="GRAFICO DE BARRA&amp;nbsp; O LINEA ULTIAMAS 24 HORAS" style="rounded=0;whiteSpace=wrap;html=1;" parent="1" vertex="1">
                    <mxGeometry x="670" y="-430" width="120" height="60" as="geometry"/>
                </mxCell>
                <mxCell id="uvzCt-EJVez2UryyWQmT-25" value="ROTURA" style="rounded=0;whiteSpace=wrap;html=1;" parent="1" vertex="1">
                    <mxGeometry x="540" y="-500" width="120" height="30" as="geometry"/>
                </mxCell>
                <mxCell id="uvzCt-EJVez2UryyWQmT-27" value="ROTURA" style="rounded=0;whiteSpace=wrap;html=1;" parent="1" vertex="1">
                    <mxGeometry x="670" y="-500" width="120" height="30" as="geometry"/>
                </mxCell>
            </root>
        </mxGraphModel>
    </diagram>
</mxfile>